<svg width="70" height="36" viewBox="0 0 22 27" fill="none" xmlns="http://www.w3.org/2000/svg">
<path d="M14.5468 14.6605C13.5874 15.7666 12.1934 16.462 10.6436 16.462C7.7572 16.462 5.4202 14.074 5.4202 11.1245C5.4202 8.1751 7.7572 5.78707 10.6436 5.78707C13.53 5.78707 15.867 8.1751 15.867 11.1245C15.867 11.9038 15.703 12.6412 15.4078 13.3115L19.8522 16.2442C20.664 14.7192 21.1314 12.9763 21.1314 11.1245C21.1314 5.20891 16.441 0.416077 10.6518 0.416077C4.8544 0.416077 0.164001 5.21729 0.164001 11.1245C0.164001 14.1578 1.394 16.8977 3.3784 18.8417L10.6436 26.5756L17.9088 18.8417C18.163 18.5903 18.4008 18.3305 18.6304 18.0624C18.7452 17.92 18.86 17.7775 18.9666 17.6351C18.9748 17.6267 18.983 17.6099 18.9912 17.6016L14.5468 14.6605Z" fill="#a1eaef"/>
</svg>
