<svg xmlns="http://www.w3.org/2000/svg" xmlns:xlink="http://www.w3.org/1999/xlink" style="margin: auto; background: rgb(241, 242, 243); display: block;" width="201px" height="201px" viewBox="0 0 100 100" preserveAspectRatio="xMidYMid">
<g transform="translate(50 50)"> <g transform="translate(-17 -17) scale(0.5)"> <g>
<animateTransform attributeName="transform" type="rotate" values="0;45" keyTimes="0;1" dur="0.7246376811594202s" begin="0s" repeatCount="indefinite"></animateTransform><path d="M37.3496987939662 -7 L50.3496987939662 -7 L50.3496987939662 7 L37.3496987939662 7 A38 38 0 0 1 31.35997276079435 21.46047782418268 L31.35997276079435 21.46047782418268 L40.55236091621947 30.652865979607796 L30.652865979607796 40.55236091621946 L21.46047782418268 31.359972760794346 A38 38 0 0 1 7.0000000000000036 37.3496987939662 L7.0000000000000036 37.3496987939662 L7.000000000000004 50.3496987939662 L-6.999999999999999 50.3496987939662 L-7 37.3496987939662 A38 38 0 0 1 -21.46047782418268 31.35997276079435 L-21.46047782418268 31.35997276079435 L-30.652865979607796 40.55236091621947 L-40.55236091621946 30.652865979607803 L-31.359972760794346 21.460477824182682 A38 38 0 0 1 -37.3496987939662 7.000000000000007 L-37.3496987939662 7.000000000000007 L-50.3496987939662 7.000000000000009 L-50.3496987939662 -6.999999999999996 L-37.3496987939662 -6.999999999999997 A38 38 0 0 1 -31.35997276079435 -21.460477824182675 L-31.35997276079435 -21.460477824182675 L-40.55236091621947 -30.65286597960779 L-30.652865979607824 -40.55236091621944 L-21.4604778241827 -31.35997276079433 A38 38 0 0 1 -6.999999999999992 -37.3496987939662 L-6.999999999999992 -37.3496987939662 L-6.999999999999995 -50.3496987939662 L6.999999999999976 -50.3496987939662 L6.999999999999979 -37.3496987939662 A38 38 0 0 1 21.460477824182686 -31.359972760794342 L21.460477824182686 -31.359972760794342 L30.652865979607803 -40.55236091621946 L40.55236091621945 -30.652865979607817 L31.35997276079433 -21.4604778241827 A38 38 0 0 1 37.3496987939662 -6.999999999999995 M0 -27A27 27 0 1 0 0 27 A27 27 0 1 0 0 -27" fill="#d2d2cb"></path></g></g> <g transform="translate(0 22) scale(0.4)"> <g>
<animateTransform attributeName="transform" type="rotate" values="45;0" keyTimes="0;1" dur="0.7246376811594202s" begin="-0.3623188405797101s" repeatCount="indefinite"></animateTransform><path d="M37.3496987939662 -7 L50.3496987939662 -7 L50.3496987939662 7 L37.3496987939662 7 A38 38 0 0 1 31.35997276079435 21.46047782418268 L31.35997276079435 21.46047782418268 L40.55236091621947 30.652865979607796 L30.652865979607796 40.55236091621946 L21.46047782418268 31.359972760794346 A38 38 0 0 1 7.0000000000000036 37.3496987939662 L7.0000000000000036 37.3496987939662 L7.000000000000004 50.3496987939662 L-6.999999999999999 50.3496987939662 L-7 37.3496987939662 A38 38 0 0 1 -21.46047782418268 31.35997276079435 L-21.46047782418268 31.35997276079435 L-30.652865979607796 40.55236091621947 L-40.55236091621946 30.652865979607803 L-31.359972760794346 21.460477824182682 A38 38 0 0 1 -37.3496987939662 7.000000000000007 L-37.3496987939662 7.000000000000007 L-50.3496987939662 7.000000000000009 L-50.3496987939662 -6.999999999999996 L-37.3496987939662 -6.999999999999997 A38 38 0 0 1 -31.35997276079435 -21.460477824182675 L-31.35997276079435 -21.460477824182675 L-40.55236091621947 -30.65286597960779 L-30.652865979607824 -40.55236091621944 L-21.4604778241827 -31.35997276079433 A38 38 0 0 1 -6.999999999999992 -37.3496987939662 L-6.999999999999992 -37.3496987939662 L-6.999999999999995 -50.3496987939662 L6.999999999999976 -50.3496987939662 L6.999999999999979 -37.3496987939662 A38 38 0 0 1 21.460477824182686 -31.359972760794342 L21.460477824182686 -31.359972760794342 L30.652865979607803 -40.55236091621946 L40.55236091621945 -30.652865979607817 L31.35997276079433 -21.4604778241827 A38 38 0 0 1 37.3496987939662 -6.999999999999995 M0 -27A27 27 0 1 0 0 27 A27 27 0 1 0 0 -27" fill="#4d695d"></path></g></g> <g transform="translate(28 4) scale(0.3)"> <g>
<animateTransform attributeName="transform" type="rotate" values="0;45" keyTimes="0;1" dur="0.7246376811594202s" begin="-0.3623188405797101s" repeatCount="indefinite"></animateTransform><path d="M37.3496987939662 -7 L50.3496987939662 -7 L50.3496987939662 7 L37.3496987939662 7 A38 38 0 0 1 31.35997276079435 21.46047782418268 L31.35997276079435 21.46047782418268 L40.55236091621947 30.652865979607796 L30.652865979607796 40.55236091621946 L21.46047782418268 31.359972760794346 A38 38 0 0 1 7.0000000000000036 37.3496987939662 L7.0000000000000036 37.3496987939662 L7.000000000000004 50.3496987939662 L-6.999999999999999 50.3496987939662 L-7 37.3496987939662 A38 38 0 0 1 -21.46047782418268 31.35997276079435 L-21.46047782418268 31.35997276079435 L-30.652865979607796 40.55236091621947 L-40.55236091621946 30.652865979607803 L-31.359972760794346 21.460477824182682 A38 38 0 0 1 -37.3496987939662 7.000000000000007 L-37.3496987939662 7.000000000000007 L-50.3496987939662 7.000000000000009 L-50.3496987939662 -6.999999999999996 L-37.3496987939662 -6.999999999999997 A38 38 0 0 1 -31.35997276079435 -21.460477824182675 L-31.35997276079435 -21.460477824182675 L-40.55236091621947 -30.65286597960779 L-30.652865979607824 -40.55236091621944 L-21.4604778241827 -31.35997276079433 A38 38 0 0 1 -6.999999999999992 -37.3496987939662 L-6.999999999999992 -37.3496987939662 L-6.999999999999995 -50.3496987939662 L6.999999999999976 -50.3496987939662 L6.999999999999979 -37.3496987939662 A38 38 0 0 1 21.460477824182686 -31.359972760794342 L21.460477824182686 -31.359972760794342 L30.652865979607803 -40.55236091621946 L40.55236091621945 -30.652865979607817 L31.35997276079433 -21.4604778241827 A38 38 0 0 1 37.3496987939662 -6.999999999999995 M0 -27A27 27 0 1 0 0 27 A27 27 0 1 0 0 -27" fill="#83a79d"></path></g></g></g>
</svg>